<svg xmlns="http://www.w3.org/2000/svg" xmlns:xlink="http://www.w3.org/1999/xlink" width="500" zoomAndPan="magnify" viewBox="0 0 375 374.999991" height="500" preserveAspectRatio="xMidYMid meet" version="1.0"><defs><g/></defs><path stroke-linecap="butt" transform="matrix(0.75, -0.000000000000000837, 0.000000000000000837, 0.75, 128.101285, 206.324986)" fill="none" stroke-linejoin="miter" d="M 0.000370149 2.998977 L 51.370165 2.998977 " stroke="#1a7347" stroke-width="6" stroke-opacity="1" stroke-miterlimit="4"/><path stroke-linecap="butt" transform="matrix(0.75, 0, 0, 0.75, 166.628665, 206.324986)" fill="none" stroke-linejoin="miter" d="M 0.000321989 2.998977 L 51.458659 2.998977 " stroke="#ffffff" stroke-width="6" stroke-opacity="1" stroke-miterlimit="4"/><path stroke-linecap="butt" transform="matrix(0.75, -0.000000000000000837, 0.000000000000000837, 0.75, 205.221027, 206.324986)" fill="none" stroke-linejoin="miter" d="M 0.0021723 2.998977 L 50.856342 2.998977 " stroke="#881211" stroke-width="6" stroke-opacity="1" stroke-miterlimit="4"/><g fill="#070707" fill-opacity="1"><g transform="translate(62.355469, 196.874987)"><g><path d="M 8.25 0.625 C 12.9375 2.25 16.453125 3.351562 18.796875 3.9375 C 21.140625 4.519531 23.148438 4.8125 24.828125 4.8125 C 26.515625 4.8125 28.367188 4.425781 30.390625 3.65625 L 30.5625 3.921875 C 27.875 5.773438 25.164062 6.703125 22.4375 6.703125 C 19.644531 6.703125 16.46875 5.832031 12.90625 4.09375 C 10.15625 2.726562 8.445312 1.898438 7.78125 1.609375 C 5.425781 0.554688 3.492188 0.0195312 1.984375 0 L 1.984375 -0.328125 L 2.40625 -0.328125 C 2.976562 -0.328125 3.46875 -0.523438 3.875 -0.921875 C 4.28125 -1.316406 4.492188 -1.8125 4.515625 -2.40625 L 4.515625 -20.6875 C 4.492188 -21.257812 4.28125 -21.75 3.875 -22.15625 C 3.46875 -22.5625 2.976562 -22.765625 2.40625 -22.765625 L 1.984375 -22.765625 L 1.984375 -23.09375 L 9.203125 -23.09375 L 9.203125 -22.765625 L 8.78125 -22.765625 C 8.207031 -22.765625 7.710938 -22.5625 7.296875 -22.15625 C 6.878906 -21.75 6.671875 -21.257812 6.671875 -20.6875 L 6.671875 -1.65625 C 6.671875 -1.257812 6.691406 -0.953125 6.734375 -0.734375 C 6.773438 -0.523438 6.914062 -0.289062 7.15625 -0.03125 C 7.40625 0.226562 7.769531 0.445312 8.25 0.625 Z M 8.25 0.625 "/></g></g></g><g fill="#070707" fill-opacity="1"><g transform="translate(75.588444, 196.874987)"><g><path d="M 23.625 -0.328125 L 23.890625 -0.328125 L 23.890625 0 L 16.46875 0 L 16.46875 -0.328125 L 16.765625 -0.328125 C 17.222656 -0.328125 17.566406 -0.472656 17.796875 -0.765625 C 18.023438 -1.066406 18.140625 -1.347656 18.140625 -1.609375 C 18.140625 -1.878906 18.097656 -2.144531 18.015625 -2.40625 L 15.90625 -8.015625 L 7 -8.015625 L 4.78125 -2.375 C 4.695312 -2.113281 4.65625 -1.851562 4.65625 -1.59375 C 4.65625 -1.34375 4.769531 -1.066406 5 -0.765625 C 5.226562 -0.472656 5.570312 -0.328125 6.03125 -0.328125 L 6.328125 -0.328125 L 6.328125 0 L -0.296875 0 L -0.296875 -0.328125 L 0 -0.328125 C 0.550781 -0.328125 1.085938 -0.503906 1.609375 -0.859375 C 2.140625 -1.210938 2.570312 -1.726562 2.90625 -2.40625 L 10.359375 -20.15625 C 11.171875 -21.945312 11.578125 -23.082031 11.578125 -23.5625 L 11.875 -23.5625 L 20.71875 -2.40625 C 21.03125 -1.726562 21.445312 -1.210938 21.96875 -0.859375 C 22.5 -0.503906 23.050781 -0.328125 23.625 -0.328125 Z M 7.390625 -9.015625 L 15.515625 -9.015625 L 11.546875 -19.609375 Z M 7.390625 -9.015625 "/></g></g></g><g fill="#070707" fill-opacity="1"><g transform="translate(99.084398, 196.874987)"><g/></g></g><g fill="#070707" fill-opacity="1"><g transform="translate(107.334386, 196.874987)"><g><path d="M -3.296875 -18.28125 C -2.660156 -20.15625 -1.59375 -21.441406 -0.09375 -22.140625 C 1.394531 -22.847656 4.046875 -23.203125 7.859375 -23.203125 C 8.648438 -23.203125 10.648438 -23.164062 13.859375 -23.09375 C 16.191406 -23.03125 18.25 -22.523438 20.03125 -21.578125 C 21.8125 -20.628906 23.203125 -19.289062 24.203125 -17.5625 C 25.203125 -15.84375 25.703125 -13.835938 25.703125 -11.546875 C 25.703125 -8.097656 24.609375 -5.3125 22.421875 -3.1875 C 20.234375 -1.0625 17.378906 0 13.859375 0 L 2.671875 0 L 2.703125 -0.328125 L 3.109375 -0.328125 C 3.648438 -0.328125 4.117188 -0.507812 4.515625 -0.875 C 4.910156 -1.238281 5.144531 -1.6875 5.21875 -2.21875 L 5.21875 -22.109375 C 2.46875 -22.046875 0.519531 -21.617188 -0.625 -20.828125 C -1.21875 -20.410156 -1.664062 -20.007812 -1.96875 -19.625 C -2.28125 -19.238281 -2.601562 -18.75 -2.9375 -18.15625 Z M 7.359375 -22.109375 L 7.359375 -0.984375 L 13.859375 -0.984375 C 16.648438 -0.984375 18.910156 -1.953125 20.640625 -3.890625 C 22.367188 -5.828125 23.234375 -8.378906 23.234375 -11.546875 C 23.234375 -13.640625 22.84375 -15.484375 22.0625 -17.078125 C 21.28125 -18.671875 20.175781 -19.90625 18.75 -20.78125 C 17.332031 -21.664062 15.703125 -22.109375 13.859375 -22.109375 Z M 7.359375 -22.109375 "/></g></g></g><g fill="#070707" fill-opacity="1"><g transform="translate(134.988323, 196.874987)"><g><path d="M 4.84375 -20.234375 C 7.195312 -22.453125 10.25 -23.5625 14 -23.5625 C 17.757812 -23.5625 20.816406 -22.453125 23.171875 -20.234375 C 25.523438 -18.023438 26.703125 -15.128906 26.703125 -11.546875 C 26.703125 -7.960938 25.523438 -5.0625 23.171875 -2.84375 C 20.816406 -0.632812 17.757812 0.46875 14 0.46875 C 10.25 0.46875 7.195312 -0.632812 4.84375 -2.84375 C 2.488281 -5.0625 1.3125 -7.960938 1.3125 -11.546875 C 1.3125 -15.128906 2.488281 -18.023438 4.84375 -20.234375 Z M 6.640625 -3.5625 C 8.503906 -1.539062 10.953125 -0.53125 13.984375 -0.53125 C 17.023438 -0.53125 19.472656 -1.539062 21.328125 -3.5625 C 23.191406 -5.582031 24.125 -8.242188 24.125 -11.546875 C 24.125 -14.847656 23.191406 -17.507812 21.328125 -19.53125 C 19.472656 -21.5625 17.023438 -22.578125 13.984375 -22.578125 C 10.953125 -22.578125 8.503906 -21.5625 6.640625 -19.53125 C 4.785156 -17.507812 3.859375 -14.847656 3.859375 -11.546875 C 3.859375 -8.242188 4.785156 -5.582031 6.640625 -3.5625 Z M 6.640625 -3.5625 "/></g></g></g><g fill="#070707" fill-opacity="1"><g transform="translate(162.972261, 196.874987)"><g><path d="M 2.40625 -0.328125 C 2.976562 -0.328125 3.46875 -0.53125 3.875 -0.9375 C 4.28125 -1.34375 4.492188 -1.832031 4.515625 -2.40625 L 4.515625 -20.6875 C 4.492188 -21.257812 4.28125 -21.75 3.875 -22.15625 C 3.46875 -22.5625 2.976562 -22.765625 2.40625 -22.765625 L 1.984375 -22.765625 L 1.984375 -23.09375 L 9.203125 -23.09375 L 9.203125 -22.765625 L 8.78125 -22.765625 C 7.988281 -22.765625 7.382812 -22.425781 6.96875 -21.75 C 6.769531 -21.414062 6.671875 -21.0625 6.671875 -20.6875 L 6.671875 -1.015625 L 11.390625 -1.015625 C 13.015625 -1.015625 14.253906 -1.378906 15.109375 -2.109375 C 15.972656 -2.835938 16.691406 -3.914062 17.265625 -5.34375 L 17.59375 -5.34375 L 15.671875 0 L 1.984375 0 L 1.984375 -0.328125 Z M 2.40625 -0.328125 "/></g></g></g><g fill="#070707" fill-opacity="1"><g transform="translate(181.518223, 196.874987)"><g><path d="M 13.765625 0.46875 C 10.285156 0.4375 7.453125 -0.675781 5.265625 -2.875 C 3.078125 -5.070312 1.984375 -7.96875 1.984375 -11.5625 C 1.984375 -15.164062 3.078125 -18.066406 5.265625 -20.265625 C 7.453125 -22.460938 10.347656 -23.5625 13.953125 -23.5625 C 16.898438 -23.5625 19.507812 -22.8125 21.78125 -21.3125 L 22.4375 -16.671875 L 22.140625 -16.671875 C 21.660156 -18.554688 20.679688 -20.007812 19.203125 -21.03125 C 17.734375 -22.0625 15.984375 -22.578125 13.953125 -22.578125 C 11.078125 -22.578125 8.773438 -21.570312 7.046875 -19.5625 C 5.316406 -17.5625 4.453125 -14.910156 4.453125 -11.609375 C 4.453125 -8.316406 5.300781 -5.660156 7 -3.640625 C 8.707031 -1.628906 10.960938 -0.59375 13.765625 -0.53125 C 16.222656 -0.53125 18.28125 -1.203125 19.9375 -2.546875 C 21.71875 -3.992188 22.796875 -6.359375 23.171875 -9.640625 L 23.4375 -9.640625 L 23.03125 -4.453125 C 21.03125 -1.171875 17.941406 0.46875 13.765625 0.46875 Z M 13.765625 0.46875 "/></g></g></g><g fill="#070707" fill-opacity="1"><g transform="translate(206.598166, 196.874987)"><g><path d="M 2.40625 -0.328125 C 2.976562 -0.328125 3.46875 -0.53125 3.875 -0.9375 C 4.28125 -1.34375 4.492188 -1.832031 4.515625 -2.40625 L 4.515625 -20.890625 C 4.515625 -21.421875 4.304688 -21.863281 3.890625 -22.21875 C 3.472656 -22.582031 2.976562 -22.765625 2.40625 -22.765625 L 2.015625 -22.765625 L 1.984375 -23.09375 L 11.65625 -23.09375 C 12.332031 -23.09375 13.070312 -23.160156 13.875 -23.296875 C 14.675781 -23.429688 15.242188 -23.5625 15.578125 -23.6875 L 15.578125 -19.53125 L 15.25 -19.53125 L 15.25 -20.125 C 15.25 -20.65625 15.066406 -21.109375 14.703125 -21.484375 C 14.335938 -21.859375 13.898438 -22.054688 13.390625 -22.078125 L 6.671875 -22.078125 L 6.671875 -11.875 L 12.25 -11.875 C 12.6875 -11.894531 13.054688 -12.0625 13.359375 -12.375 C 13.671875 -12.6875 13.828125 -13.070312 13.828125 -13.53125 L 13.828125 -13.984375 L 14.15625 -13.984375 L 14.15625 -8.78125 L 13.828125 -8.78125 L 13.828125 -9.265625 C 13.828125 -9.710938 13.675781 -10.085938 13.375 -10.390625 C 13.082031 -10.703125 12.71875 -10.867188 12.28125 -10.890625 L 6.671875 -10.890625 L 6.671875 -1.015625 L 11.390625 -1.015625 C 13.015625 -1.015625 14.253906 -1.378906 15.109375 -2.109375 C 15.972656 -2.835938 16.691406 -3.914062 17.265625 -5.34375 L 17.59375 -5.34375 L 15.671875 0 L 1.984375 0 L 1.984375 -0.328125 Z M 2.40625 -0.328125 "/></g></g></g><g fill="#070707" fill-opacity="1"><g transform="translate(225.639131, 196.874987)"><g/></g></g><g fill="#070707" fill-opacity="1"><g transform="translate(233.889119, 196.874987)"><g><path d="M 25.578125 -29.5625 C 26.316406 -30.070312 27.203125 -30.46875 28.234375 -30.75 C 29.273438 -31.039062 30.113281 -31.1875 30.75 -31.1875 C 31.394531 -31.1875 31.800781 -31.1875 31.96875 -31.1875 L 31.96875 -30.859375 C 30.9375 -30.804688 29.96875 -30.597656 29.0625 -30.234375 C 28.164062 -29.878906 27.425781 -29.460938 26.84375 -28.984375 C 26.257812 -28.515625 25.691406 -27.890625 25.140625 -27.109375 C 24.585938 -26.328125 24.160156 -25.660156 23.859375 -25.109375 C 23.566406 -24.554688 23.222656 -23.851562 22.828125 -23 L 13.65625 -2.9375 C 12.84375 -1.15625 12.4375 -0.0195312 12.4375 0.46875 L 12.140625 0.46875 L 2.875 -20.6875 C 2.5625 -21.394531 2.132812 -21.914062 1.59375 -22.25 C 1.0625 -22.59375 0.519531 -22.765625 -0.03125 -22.765625 L -0.296875 -22.765625 L -0.296875 -23.09375 L 7.125 -23.09375 L 7.125 -22.765625 L 6.828125 -22.765625 C 6.171875 -22.765625 5.734375 -22.457031 5.515625 -21.84375 C 5.460938 -21.707031 5.4375 -21.550781 5.4375 -21.375 C 5.4375 -21.207031 5.492188 -20.988281 5.609375 -20.71875 L 12.5 -3.4375 L 20.6875 -23 C 21.988281 -26.0625 23.617188 -28.25 25.578125 -29.5625 Z M 25.578125 -29.5625 "/></g></g></g><g fill="#070707" fill-opacity="1"><g transform="translate(257.583057, 196.874987)"><g><path d="M 2.40625 -0.328125 C 2.976562 -0.328125 3.46875 -0.53125 3.875 -0.9375 C 4.28125 -1.34375 4.492188 -1.832031 4.515625 -2.40625 L 4.515625 -20.71875 C 4.492188 -21.289062 4.28125 -21.773438 3.875 -22.171875 C 3.46875 -22.566406 2.976562 -22.765625 2.40625 -22.765625 L 1.984375 -22.765625 L 1.984375 -23.09375 L 9.203125 -23.09375 L 9.203125 -22.765625 L 8.78125 -22.765625 C 8.207031 -22.765625 7.71875 -22.566406 7.3125 -22.171875 C 6.90625 -21.773438 6.691406 -21.289062 6.671875 -20.71875 L 6.671875 -2.40625 C 6.671875 -1.832031 6.878906 -1.34375 7.296875 -0.9375 C 7.710938 -0.53125 8.207031 -0.328125 8.78125 -0.328125 L 9.203125 -0.328125 L 9.203125 0 L 1.984375 0 L 1.984375 -0.328125 Z M 2.40625 -0.328125 "/></g></g></g><g fill="#070707" fill-opacity="1"><g transform="translate(268.737017, 196.874987)"><g><path d="M 19.4375 -20.15625 C 19.4375 -20.6875 19.25 -21.144531 18.875 -21.53125 C 18.5 -21.914062 18.0625 -22.117188 17.5625 -22.140625 L 11.28125 -22.140625 L 11.28125 -2.375 C 11.300781 -1.800781 11.515625 -1.316406 11.921875 -0.921875 C 12.335938 -0.523438 12.828125 -0.328125 13.390625 -0.328125 L 13.828125 -0.328125 L 13.828125 0 L 6.59375 0 L 6.59375 -0.328125 L 7.03125 -0.328125 C 7.601562 -0.328125 8.09375 -0.523438 8.5 -0.921875 C 8.90625 -1.316406 9.117188 -1.789062 9.140625 -2.34375 L 9.140625 -22.140625 L 2.875 -22.140625 C 2.34375 -22.117188 1.894531 -21.914062 1.53125 -21.53125 C 1.164062 -21.144531 0.984375 -20.6875 0.984375 -20.15625 L 0.984375 -19.609375 L 0.65625 -19.5625 L 0.65625 -23.734375 C 0.988281 -23.597656 1.5625 -23.460938 2.375 -23.328125 C 3.1875 -23.203125 3.9375 -23.140625 4.625 -23.140625 L 15.78125 -23.140625 C 16.851562 -23.140625 17.742188 -23.21875 18.453125 -23.375 C 19.171875 -23.539062 19.609375 -23.660156 19.765625 -23.734375 L 19.765625 -19.5625 L 19.4375 -19.609375 Z M 19.4375 -20.15625 "/></g></g></g><g fill="#070707" fill-opacity="1"><g transform="translate(289.130983, 196.874987)"><g><path d="M 23.625 -0.328125 L 23.890625 -0.328125 L 23.890625 0 L 16.46875 0 L 16.46875 -0.328125 L 16.765625 -0.328125 C 17.222656 -0.328125 17.566406 -0.472656 17.796875 -0.765625 C 18.023438 -1.066406 18.140625 -1.347656 18.140625 -1.609375 C 18.140625 -1.878906 18.097656 -2.144531 18.015625 -2.40625 L 15.90625 -8.015625 L 7 -8.015625 L 4.78125 -2.375 C 4.695312 -2.113281 4.65625 -1.851562 4.65625 -1.59375 C 4.65625 -1.34375 4.769531 -1.066406 5 -0.765625 C 5.226562 -0.472656 5.570312 -0.328125 6.03125 -0.328125 L 6.328125 -0.328125 L 6.328125 0 L -0.296875 0 L -0.296875 -0.328125 L 0 -0.328125 C 0.550781 -0.328125 1.085938 -0.503906 1.609375 -0.859375 C 2.140625 -1.210938 2.570312 -1.726562 2.90625 -2.40625 L 10.359375 -20.15625 C 11.171875 -21.945312 11.578125 -23.082031 11.578125 -23.5625 L 11.875 -23.5625 L 20.71875 -2.40625 C 21.03125 -1.726562 21.445312 -1.210938 21.96875 -0.859375 C 22.5 -0.503906 23.050781 -0.328125 23.625 -0.328125 Z M 7.390625 -9.015625 L 15.515625 -9.015625 L 11.546875 -19.609375 Z M 7.390625 -9.015625 "/></g></g></g></svg>